<?xml version="1.0" encoding="UTF-8"?>
<svg version="1.1" xmlns="http://www.w3.org/2000/svg" width="512" height="512">
<path d="M0 0 C1.10939941 -0.00101212 1.10939941 -0.00101212 2.24121094 -0.00204468 C13.1510168 0.01378164 23.45881089 0.46133097 34.0625 3.25 C35.07159424 3.49943359 35.07159424 3.49943359 36.10107422 3.75390625 C57.94115403 9.20257481 78.03906409 19.49635554 95.0625 34.25 C95.86816406 34.93449219 96.67382812 35.61898437 97.50390625 36.32421875 C126.77796415 61.84166828 144.00652053 97.68836429 147.0625 136.25 C147.74893556 148.73344668 147.01720148 160.91094689 145.0625 173.25 C145.65675781 173.52070313 146.25101562 173.79140625 146.86328125 174.0703125 C162.57078405 182.49600672 173.39301052 205.93714508 178.74414062 222.33935547 C184.65297476 242.15270802 186.00469653 265.26696811 180.0625 285.25 C179.7221875 286.46945312 179.381875 287.68890625 179.03125 288.9453125 C174.65600601 303.34223023 167.57299088 315.60552971 158.0625 327.25 C157.41539062 328.05050781 156.76828125 328.85101563 156.1015625 329.67578125 C138.25989334 350.75808011 112.13861984 362.86524933 85.0625 366.25 C82.66880793 366.35113217 80.27294699 366.40769644 77.87719727 366.42700195 C77.19652191 366.43357315 76.51584656 366.44014435 75.81454468 366.44691467 C73.58599706 366.46645383 71.35751599 366.478263 69.12890625 366.48828125 C68.36199903 366.49235678 67.59509182 366.4964323 66.80494499 366.50063133 C62.74976759 366.52140389 58.6946232 366.53574651 54.6394043 366.54516602 C50.46890223 366.55624588 46.29893137 366.59068881 42.12861729 366.63033772 C38.90369214 366.65655662 35.67889312 366.66486221 32.45387077 366.66844749 C30.91697516 366.6732954 29.38008451 366.68485783 27.84329414 366.70348549 C12.88893134 366.87357019 12.88893134 366.87357019 6.0625 362.25 C0.82447058 356.73628482 -0.35804749 352.39498663 -0.1796875 344.93359375 C0.39446192 338.57164774 3.67890893 335.34681623 8.34375 331.44921875 C11.71180363 329.09923587 14.77455914 329.1131623 18.7487793 329.07641602 C19.91817551 329.06292618 21.08757172 329.04943634 22.29240417 329.03553772 C23.56102798 329.02509933 24.82965179 329.01466095 26.13671875 329.00390625 C28.14227206 328.97938622 30.14782529 328.95485495 32.15337086 328.92970943 C37.08824683 328.86927614 42.02321937 328.8188748 46.95825195 328.77319336 C76.41809419 328.49293128 102.95113546 328.07457147 125.25390625 306.08984375 C138.67880998 291.64597199 145.85522087 272.53096665 145.34765625 252.82421875 C143.67265079 231.82928733 134.88783373 214.11419082 119.0625 200.25 C117.46975505 199.00606876 115.86580005 197.77633343 114.25 196.5625 C109.60706067 193.07016692 106.92659923 189.84229769 105.0625 184.25 C104.67881607 178.590662 105.32536811 173.84458035 106.5625 168.3125 C110.18204791 150.91791428 109.37876392 132.18598232 104.0625 115.25 C103.84819336 114.56260742 103.63388672 113.87521484 103.41308594 113.16699219 C98.32679023 97.38985079 90.28306924 83.18445849 78.29296875 71.56640625 C76.0625 69.25 76.0625 69.25 76.0625 67.25 C75.49273437 66.99476562 74.92296875 66.73953125 74.3359375 66.4765625 C71.80719189 65.11225645 69.86912728 63.49390255 67.6875 61.625 C55.4921494 51.74317915 41.44795446 45.54916692 26.375 41.5 C25.5910083 41.28899658 24.8070166 41.07799316 23.99926758 40.8605957 C-2.09100021 34.1797107 -31.08158444 39.23884092 -54.2331543 52.64868164 C-82.26984064 69.61445326 -98.70641177 94.73731612 -106.5 126.25 C-106.6858667 127.06380127 -106.8717334 127.87760254 -107.06323242 128.71606445 C-108.39473179 134.23917209 -110.05763953 138.05552117 -114.7265625 141.61328125 C-120.02356615 144.35194484 -125.01137811 145.28103375 -130.9375 144.25 C-135.19088508 142.41992511 -138.66249952 140.07580682 -142.3125 137.25 C-146.72241847 134.00215464 -150.59961999 131.53066073 -155.9375 130.25 C-156.5975 130.08628906 -157.2575 129.92257813 -157.9375 129.75390625 C-167.01322028 128.13562524 -176.79782461 130.40199752 -184.4375 135.4375 C-194.10579044 143.01363579 -198.46609036 152.44966244 -199.9375 164.5 C-200.59844623 169.75908077 -201.23827388 173.24250504 -204.9375 177.25 C-205.741875 178.1575 -206.54625 179.065 -207.375 180 C-212.064063 183.66260145 -218.22904527 183.58331916 -223.9375 184.25 C-240.76829049 186.27151754 -255.31299408 191.53580001 -267.9375 203.25 C-268.54464844 203.76691406 -269.15179688 204.28382813 -269.77734375 204.81640625 C-283.01394668 216.79238033 -289.99774551 235.06977592 -291.15625 252.55078125 C-291.69798551 272.8432905 -284.37942159 292.03347176 -270.46484375 306.8046875 C-253.2355464 323.474765 -233.14053769 328.40609633 -209.80371094 328.3918457 C-208.85749878 328.39532013 -207.91128662 328.39879456 -206.93640137 328.40237427 C-204.90401532 328.40966505 -202.87162167 328.41504552 -200.83922577 328.41866493 C-197.61868512 328.42590076 -194.39829072 328.44161521 -191.17779541 328.46000671 C-182.02903112 328.51217405 -172.88035553 328.56049956 -163.73144531 328.57592773 C-158.11650362 328.58601262 -152.5019442 328.61533384 -146.88715363 328.65724754 C-144.75499614 328.66953786 -142.6227847 328.67468241 -140.49059296 328.67244911 C-137.5112161 328.67009393 -134.53293898 328.69227404 -131.55371094 328.7199707 C-130.67978699 328.71336929 -129.80586304 328.70676788 -128.90545654 328.69996643 C-123.09724553 328.78845916 -119.72332607 329.91760526 -114.9375 333.25 C-110.79839625 337.61283909 -108.87049847 341.57706311 -108.5625 347.5625 C-108.70187814 352.48992711 -109.97432713 356.29623154 -112.9375 360.25 C-117.27091886 364.21901773 -121.31458712 366.36405369 -127.26377869 366.39717102 C-128.14772812 366.40432632 -129.03167755 366.41148163 -129.94241333 366.41885376 C-130.91008636 366.42154266 -131.8777594 366.42423157 -132.87475586 366.42700195 C-133.8964537 366.43357315 -134.91815155 366.44014435 -135.97080994 366.44691467 C-139.36465532 366.46667663 -142.75845608 366.47832526 -146.15234375 366.48828125 C-147.31614626 366.49235678 -148.47994877 366.4964323 -149.67901802 366.50063133 C-155.85526477 366.52151803 -162.03148922 366.53580076 -168.20776367 366.54516602 C-174.5406555 366.55615309 -180.8731884 366.59045547 -187.20595455 366.63033772 C-192.11101354 366.65671076 -197.01599035 366.66487672 -201.92111397 366.66844749 C-204.25191191 366.67327109 -206.58270726 366.6847616 -208.91343498 366.70348549 C-239.68956105 366.93508067 -267.20802512 360.73995612 -290.9375 340.25 C-291.67226563 339.65960938 -292.40703125 339.06921875 -293.1640625 338.4609375 C-313.51884647 321.55855506 -325.09280649 295.97082314 -328.9375 270.25 C-330.75949883 236.35530054 -323.73286096 207.53592202 -300.96435547 181.6184082 C-284.54046973 163.38966843 -262.88340221 151.91177782 -238.9375 147.25 C-237.9475 147.25 -236.9575 147.25 -235.9375 147.25 C-235.80214844 146.60675781 -235.66679687 145.96351563 -235.52734375 145.30078125 C-231.11121869 126.76363354 -219.03298925 111.22686501 -202.9375 101.25 C-181.75901268 89.16807688 -159.97375167 89.08498163 -136.9375 95.25 C-136.77241943 94.70545166 -136.60733887 94.16090332 -136.43725586 93.59985352 C-128.52544256 68.59167854 -110.69161834 45.94011347 -89.9375 30.25 C-89.41317383 29.84539551 -88.88884766 29.44079102 -88.34863281 29.02392578 C-79.43035009 22.17323076 -70.17827208 16.87363217 -59.9375 12.25 C-58.74640625 11.70472656 -57.5553125 11.15945313 -56.328125 10.59765625 C-38.22235664 2.82957004 -19.56705703 0.01600211 0 0 Z " fill="#017FD5" transform="translate(328.9375,-0.25)"/>
<path d="M0 0 C4.15070681 2.89890634 6.103141 6.52784768 7.72265625 11.203125 C7.97746527 13.54895335 7.97746527 13.54895335 7.98436928 16.01943684 C7.99183477 16.96642549 7.99930026 17.91341414 8.00699198 18.88909942 C8.00408988 20.43725075 8.00408988 20.43725075 8.00112915 22.01667786 C8.00692155 23.11942557 8.01271395 24.22217327 8.01868188 25.35833758 C8.03571223 29.06029163 8.03856104 32.76212124 8.04150391 36.46411133 C8.05079999 39.11506869 8.06088086 41.76601222 8.07194519 44.41696167 C8.09421376 50.12779526 8.10922946 55.83861093 8.11931229 61.54947853 C8.13390083 69.80641672 8.15943814 78.06329252 8.18764357 86.32019409 C8.23310838 99.71662003 8.26972448 113.11305496 8.30078125 126.50952148 C8.33096807 139.52255836 8.36531894 152.53557327 8.40527344 165.54858398 C8.40896576 166.75186627 8.40896576 166.75186627 8.41273268 167.9794573 C8.4251073 172.0038195 8.43756383 176.02818145 8.45006108 180.05254328 C8.55362422 213.43604066 8.64282901 246.81956247 8.72265625 280.203125 C9.47576584 279.44335358 10.22887543 278.68358215 11.00480652 277.90078735 C18.10326965 270.7415081 25.20964184 263.59016422 32.32383251 256.44651222 C35.98105081 252.77363841 39.63542618 249.09802639 43.28344727 245.41601562 C46.8041131 241.86275297 50.33205764 238.31686973 53.86516762 234.7759819 C55.21179301 233.42381365 56.55577519 232.06900769 57.89705467 230.71153641 C59.77624574 228.81056746 61.66461834 226.91919624 63.55541992 225.02978516 C64.10783859 224.46658066 64.66025726 223.90337616 65.22941589 223.32310486 C69.91131849 218.67832353 73.60764151 216.91850804 80.16015625 216.890625 C85.68777869 217.02399927 89.35028421 217.83634818 93.37890625 221.85546875 C97.37010878 226.30791874 98.87181422 229.43989279 98.97265625 235.515625 C99.01132812 236.90201172 99.01132812 236.90201172 99.05078125 238.31640625 C98.13465585 246.37612855 92.10762518 251.24405056 86.64892578 256.66503906 C85.2558017 258.06604858 85.2558017 258.06604858 83.83453369 259.49536133 C81.29597914 262.04755058 78.74807712 264.59020924 76.1979394 267.13081837 C73.52653529 269.79460818 70.86247999 272.46573149 68.19723511 275.13568115 C63.72199551 279.61637219 59.24048212 284.09071511 54.75537109 288.56152344 C49.57318182 293.72737743 44.40190188 298.90396351 39.23613656 304.08623719 C34.79569665 308.54029746 30.3494291 312.98847677 25.89825141 317.43180633 C23.24185494 320.08353061 20.5875155 322.73722864 17.93841934 325.39624786 C14.98587867 328.35907538 12.02121522 331.30947505 9.05517578 334.25878906 C8.1801944 335.13984314 7.30521301 336.02089722 6.40371704 336.9286499 C5.18827209 338.13140564 5.18827209 338.13140564 3.94827271 339.35845947 C3.24884111 340.05675999 2.54940952 340.7550605 1.82878304 341.47452164 C-2.06354194 344.669147 -5.75980693 345.49453974 -10.71484375 345.515625 C-11.62105469 345.53238281 -12.52726562 345.54914063 -13.4609375 345.56640625 C-19.05612212 344.84469728 -23.05678929 341.80743111 -27.10342407 338.05447388 C-27.96663898 337.25555851 -28.8298539 336.45664314 -29.71922684 335.63351822 C-33.54765659 331.99623735 -37.32320913 328.31277197 -41.06005859 324.58154297 C-41.87439362 323.77217285 -42.68872864 322.96280273 -43.52774048 322.12890625 C-46.18398746 319.4871039 -48.8364697 316.84156662 -51.48828125 314.1953125 C-52.40085316 313.28556797 -53.31342506 312.37582344 -54.25365067 311.43851089 C-58.57852944 307.12701638 -62.90167359 302.81380031 -67.22180974 298.49755371 C-72.18367113 293.54018715 -77.15203778 288.58946267 -82.12606275 283.6443013 C-86.45854107 279.33608413 -90.78270255 275.01960656 -95.10393143 270.70010757 C-96.93464439 268.8724165 -98.76785253 267.04722112 -100.60361862 265.22460556 C-103.16655165 262.67874409 -105.71983454 260.12356794 -108.27099609 257.56591797 C-109.02636658 256.81976227 -109.78173706 256.07360657 -110.55999756 255.30484009 C-116.03631285 249.78482049 -120.72793242 244.44420635 -121.375 236.31640625 C-121.12408221 230.88654518 -119.34677572 226.53268907 -115.96484375 222.328125 C-110.41158879 217.93717922 -106.21070978 216.85563353 -99.25390625 216.609375 C-89.15870502 218.62311593 -81.72296137 228.37552896 -74.80859375 235.37890625 C-73.52031234 236.6727909 -72.23136103 237.96600886 -70.94177246 239.2585907 C-67.56828987 242.64346466 -64.20391892 246.03725332 -60.84143066 249.43304443 C-57.40109675 252.9042028 -53.95213217 256.36676267 -50.50390625 259.83007812 C-43.75329335 266.61275434 -37.01228486 273.40488953 -30.27734375 280.203125 C-30.27644812 279.35014435 -30.27644812 279.35014435 -30.27553439 278.47993177 C-30.2396406 244.77701484 -30.18300192 211.07420141 -30.0994228 177.37136933 C-30.08940534 173.32464697 -30.07956121 169.27792421 -30.06982422 165.23120117 C-30.06691216 164.02275645 -30.06691216 164.02275645 -30.06394127 162.7898987 C-30.03292001 149.74518139 -30.01594027 136.70048166 -30.00414953 123.65573441 C-29.99173862 110.27065352 -29.96423859 96.88566496 -29.92273068 83.50064236 C-29.89759351 75.24131387 -29.88422663 66.98213852 -29.88591418 58.72277123 C-29.88594393 53.0590389 -29.87131726 47.39546256 -29.84517947 41.73179101 C-29.83053126 38.46405248 -29.82450458 35.19669827 -29.83154106 31.92892456 C-29.83815835 28.38399022 -29.82031285 24.83999094 -29.79632568 21.29515076 C-29.8040861 20.26498461 -29.81184652 19.23481846 -29.8198421 18.17343515 C-29.74543389 11.96957674 -28.91983517 8.27410635 -25.27734375 3.203125 C-17.8602134 -3.8336397 -8.91326254 -5.03253789 0 0 Z " fill="#017FD5" transform="translate(285.27734375,166.796875)"/>
</svg>
